<svg xmlns="http://www.w3.org/2000/svg" width="1280" height="539" viewBox="0 0 1280 539">
    <path fill="#000" fill-rule="evenodd" d="M0 508.98V39.662h129.757V36.62c.4-1.254.965-2.27 1.692-3.048 2.305.502 3.971 2.532 4.999 6.09h.017l1.639-.522c1.052-2.533 2.72-3.925 5-4.176l.865 1.656v1.956a8.278 8.278 0 0 0-.638 1.086h4.414c.064-.463.096-.925.096-1.387l1.955-.828 1.128.828v.484l6.266.66a5.27 5.27 0 0 1 1.78-.279c.182.179.345.352.49.52l9.27.977c1.196-.949 2.117-2.012 2.76-3.19 1.68-1.229 2.795-2.708 3.346-4.44l1.09-.827c1.38-.226 2.495-.226 3.347 0l.564 1.656c-1.003.852-1.654 1.78-1.955 2.784-1.654.451-2.67 1.38-3.046 2.784-.768.474-1.392 1.034-1.873 1.68l51.127 5.391a4.301 4.301 0 0 1 .225-2.067c1.028-.803 1.767-1.63 2.218-2.483l.865-.565.526-1.128.865-.828.526-.828c.326-.2.514-.389.564-.564.878-.627 1.53-1.18 1.955-1.656l.564-.3.264-.565c1.228-.953 2.155-1.969 2.782-3.047l1.955-.828c.702-1.781 1.529-3.173 2.481-4.176 1.153-.377 2.181-.477 3.083-.301-1.128 2.709-2.895 4.565-5.3 5.568l-.264.564-3.045 5.568-1.128.565-.828.828c-.626.877-1.09 1.617-1.39 2.22l-.828.3c-.652.728-1.115 1.468-1.39 2.22-.896.549-1.632 1.137-2.208 1.766l136.14 14.357c-.346-1.883-1.219-3.674-2.619-5.371-.025-.778.25-1.618.827-2.521 1.253-.025 2.745.063 4.474.263.853 1.756 2.331 3.148 4.437 4.177-.515 1.36-.706 2.723-.575 4.09 104.273-7.62 187.818-9.996 250.636-7.13 1.32-2.216 2.995-2.815 5.027-1.798 2.16-.303 3.912.472 5.254 2.324l.502.029c1.243-2.931 1.267-5.76.072-8.486v-3.048c.4-1.254.965-2.27 1.692-3.047 2.306.502 3.973 2.533 5 6.095l1.655-.527c1.052-2.533 2.72-3.925 5-4.176l.865 1.655v1.957c-1.78 2.583-1.604 4.991.526 7.224h1.391l.301-.565.263-1.655c.928-1.781 1.391-3.55 1.391-5.305l1.955-.828 1.128.828v2.784c-1.027 1.78-1.128 3.449-.3 5.004-.477 1.254-.477 2.37 0 3.348 1.78-.526 3.17-1.266 4.173-2.22 2.08-.275 3.56-1.203 4.436-2.784 2.281-.627 4.424-.714 6.43-.263l1.654-2.52c1.905-1.18 3.296-2.572 4.173-4.177 1.68-1.229 2.795-2.709 3.346-4.44l1.09-.827c1.38-.226 2.495-.226 3.347 0l.564 1.655c-1.003.853-1.654 1.781-1.955 2.784-1.654.452-2.67 1.38-3.046 2.785-1.178.727-2.017 1.655-2.519 2.784-1.73 1.003-2.657 2.395-2.782 4.176-1.98 1.705-4.023 2.91-6.128 3.612l-.04.094c2.133.081 4.143.146 6.04.195a9.635 9.635 0 0 0 .955-1.681h1.955c.301.561.481 1.147.542 1.757a346.8 346.8 0 0 0 4.22.049c1.934-1.6 3.145-1.6 3.634-.002 4.638-.033 8.447-.18 11.836-.386a6.45 6.45 0 0 1 1.432-1.251l.947.38.053.226 1.55-.209c.136.19.276.37.417.541.788-.064 1.56-.13 2.324-.197-.072-.404-.005-.967.203-1.689.24 0 .494-.03.763-.09 1.78-1.278 2.95-.9 3.511 1.134-.054.088-.11.172-.168.253 2.178-.2 4.393-.397 6.805-.57.2-.245.393-.502.582-.774a5.698 5.698 0 0 1 3.038.543c4.273-.237 9.267-.384 15.668-.352-.898-.421-.797-1.038.303-1.85 1.435.488 1.67 1.107.705 1.856 4.271.033 9.156.145 14.844.36.103-.235.225-.468.365-.7.414.255.75.506 1.009.753 13.522.538 31.469 1.646 56.227 3.638.304-1.905-.576-3.48-2.639-4.722-.568-1.58-1.752-2.575-3.552-2.986-.758-.853-1.752-1.675-2.984-2.465l-.284-.568-.521-.237-1.658-1.09-.568-.854-.805-.521c-1.8.158-3.79-.032-5.968-.569l-1.942-.237-1.61-1.09c-.38-1.043-1.105-1.959-2.179-2.749-1.705-3.349-.979-6.161 2.179-8.436h3.552c1.2 1.927 2.92 3.476 5.163 4.645l.284.521c3.726-.032 7.53-1.122 11.414-3.27l4.926-.285h1.61c1.705 1.138 3.805 1.96 6.3 2.465.852 2.938 2.763 5.213 5.73 6.825h4.358v-2.18c2.873-1.138 5.952-1.327 9.236-.57.379 1.044 1.105 1.96 2.179 2.75-.41 5.434-2.132 8.61-5.163 9.526l-.568 1.09c.252 1.17.173 2.45-.237 3.84 1.073.252 2.336.347 3.789.284.41-.917.6-1.928.568-3.034.884 0 1.879.19 2.984.57h2.179l.284.52h.805c-.094 1.043.363 1.691 1.374 1.944.347.98.979 1.975 1.894 2.986a6.795 6.795 0 0 1-.172 1.318c4.157.344 8.187.654 12.096.931a2.106 2.106 0 0 1-.462-.354c-.284-1.453-.931-2.906-1.942-4.36l.569-5.45v-6.02l-.284-1.611c.789-1.074 1.973-1.532 3.552-1.374.537-1.264.805-2.623.805-4.076 3.347-3.729 7.8-5.91 13.356-6.541.916-1.801 2.558-2.986 4.926-3.555h1.326c1.926.38 3.3 1.66 4.121 3.84.253 2.053-.568 3.68-2.463 4.881-.158.632-.52 1.359-1.09 2.18l.522 2.465c3.441 3.475 3.805 9.194 1.09 17.157.245 1.564.258 2.96.037 4.187 82.836 3.426 103.23-10.407 154.086-19.229.764-.52 1.59-.66 2.48-.422l.798-.132c1.718-1.316 3.903-1.657 6.553-1.024.622-.091 1.248-.182 1.879-.272l.127-.127c.162.023.321.037.476.041l1.125-.157c.62-.205 1.159-.609 1.62-1.211a2.43 2.43 0 0 0-1.706-.57c-.947 1.17-2.842 1.17-5.683 0v-1.326c1.231-1.074 2.557-1.39 3.978-.948.663-2.338 2.116-3.476 4.357-3.413l.758 3.792c-.568.885-.947 1.706-1.136 2.465.27.265.523.536.758.814 1.223-.16 2.463-.317 3.723-.47a3.47 3.47 0 0 1 1.013-1.671c.915-.095 1.673-.095 2.273 0 .02.47.001.899-.057 1.29a442.33 442.33 0 0 1 2.746-.306 4.774 4.774 0 0 1-.037-.984l.758-.38c1.895.411 3.41.032 4.547-1.137a5.59 5.59 0 0 1 .7 1.897c1.106-.105 2.224-.207 3.357-.307.027-.218.064-.432.111-.642.996-.598 1.76-.452 2.295.437 10.507-.871 22.21-1.51 35.45-1.835a1.593 1.593 0 0 0-.388-.45l1.374-.57c.394.342.791.665 1.191.97a818.58 818.58 0 0 1 12.201-.171 8.046 8.046 0 0 0-1.41-1.083l-.52-1.09-.569-.521-1.61-1.375-.284-.52-.569-.285c-1.105-1.517-2.273-2.702-3.505-3.555v-.806c1.106-.158 2.1-.063 2.984.285.474 1.074 1.105 1.974 1.895 2.701l1.09.806c.63.695 1.262 1.153 1.894 1.374.758.727 1.484 1.28 2.178 1.66l.569.805c.22.284.49.458.805.521l.568.57.805.283.147.21h1.624c2.3 0 4.547.078 6.742.236-.87-1.722-2.255-2.96-4.155-3.716.063-4.645-1.216-6.92-3.837-6.825-.126-.663-.394-1.216-.805-1.659v-1.895c.38-1.485.569-2.844.569-4.076-1.232-1.264-2.147-2.45-2.747-3.555.031-3.918-1.595-6.556-4.879-7.915a7.49 7.49 0 0 0-1.09-2.702c-.062-1.959.111-3.602.522-4.929 2.052-.474 3.868-.474 5.447 0 1.578 2.086 3.3 3.634 5.162 4.645 2.432-5.403 5.526-7.315 9.283-5.735.632.79 1.263 1.343 1.895 1.659l.568.521.521.285c1.042 1.106 2.053 1.927 3.032 2.464 0 1.454-.19 2.718-.569 3.792-1.294 1.295-2.652 2.022-4.073 2.18 3.315 2.939 6.947 4.85 10.893 5.735v-.142.142l-.284-.806-.284-.569-.237-.805h1.09c1.42 2.496 3.33 4.139 5.73 4.929-.947-1.011-1.23-2.022-.852-3.033 12.346 10.743 14.62 10.648 6.82-.285l-.284-2.18-.805-.521-.521-.806c-.884-.916-1.705-1.564-2.463-1.943-.19-.316-.379-.49-.568-.522l-.237-.568-.853-.522c-1.294-1.8-2.652-3.16-4.073-4.076l-.568-1.943h1.09l.568.853.52.806 2.463 2.18.285.806 2.747 1.896c.663.916 1.294 1.643 1.894 2.18h1.374c.473 1.043 1.105 1.864 1.894 2.464 1.642 2.623 3.363 4.63 5.163 6.02-1.642-4.55-3.82-8.184-6.536-10.901-.474-.98-.648-1.896-.521-2.75l1.09.285c.504 1.043 1.041 1.943 1.61 2.702.884 1.074 1.705 1.8 2.462 2.18.6.853 1.232 1.5 1.895 1.943l.284.806.521.521.284.853.284.522c1.61 1.421 2.795 2.796 3.553 4.123l2.415.521-1.326-2.464-3.552-3.555-.569-1.09c-1.042-1.106-1.768-2.101-2.178-2.986l-.521-.521-2.747-4.124-.237-1.611c.473.126.837.3 1.09.521l.804 1.09.285 1.09.52.854c.885.884 1.516 1.69 1.895 2.417l.853.853.52.806.806.52c.852 1.58 1.673 2.766 2.463 3.556l1.657 1.374c.821 1.58 1.642 2.86 2.463 3.839h.805c2.432 2.117 4.974 3.476 7.626 4.076l-.284-1.09-.284-.806-.521-1.09a10.345 10.345 0 0 0-.806-2.749l-.284-.806c-.473-1.737-1.105-3.112-1.894-4.123l-.569-1.896-.284-1.611.569-1.943.805.568c.631 2.465 1.452 4.456 2.463 5.972.978 3.286 2.43 5.925 4.357 7.915 1.168-1.01 2.352-1.643 3.552-1.896l-.568-1.09v-1.374l-.521-1.09-.568-1.612v-.853l-.806-2.18-.284-.521v-.806l-2.7-6.825c-.22-.98-.22-1.896 0-2.749l1.09.853c.031.443.11.806.237 1.09.789 2.37 1.61 4.266 2.463 5.688v.853l.284.806c.158.916.426 1.737.805 2.464.316 3.381 1.31 6.098 2.984 8.152l.284 1.659 1.658 1.09c1.831-.316 3.189.047 4.073 1.09h2.463l.805.806.284.569c.632.663 1.09 1.39 1.374 2.18l.236.521.569.285c.19.315.363.49.52.52.19.317.38.506.57.57l.283.52c1.484 1.423 2.574 2.797 3.268 4.124v2.3h32.23l.451-.688 1.09-1.375c1.989.443 3.71.632 5.162.57.515.52.932 1.017 1.25 1.493H1280V539H0v-30.02zM725.235 51.65c-1.236.09-2.038-.5-2.404-1.771.631-.38 1.263-.948 1.894-1.706.19 0 .379-.063.568-.19 1.12.36 1.66.987 1.621 1.883.246-.309.452-.621.62-.937l.864-.564.526-1.129.865-.827.526-.828c.326-.2.514-.389.564-.564.878-.628 1.53-1.18 1.955-1.656l.564-.3.264-.565c1.228-.953 2.155-1.97 2.782-3.048l1.955-.827c.702-1.781 1.529-3.173 2.481-4.177 1.153-.376 2.181-.476 3.083-.3-1.128 2.708-2.895 4.564-5.3 5.568l-.264.564-3.045 5.568-1.128.565-.828.827c-.626.878-1.09 1.618-1.39 2.22l-.828.301c-.652.727-1.115 1.467-1.39 2.22-1.23.752-2.157 1.58-2.783 2.483h-1.692c-.322-.99-.349-1.926-.08-2.81zM337.32 58.207c1.98.276 2.068-.188.263-1.392l-.263 1.392zM199.012 39.14c3.885.251 3.885 1.355 0 3.311v-3.31zm41.17-1.392c-.327-1.053-.427-1.981-.302-2.784 4.412-.426 4.512.502.301 2.784zm-17.521-6.433c-.953-1.38-.025-2.584 2.782-3.612 1.002.477 1.19 1.217.564 2.22-1.078.878-2.193 1.342-3.346 1.392zm-7.52-5.53c-1.028-.703-1.767-1.455-2.218-2.258l.263-1.392c6.567-4.515 13.335-5.619 20.303-3.311l.865 1.919c-2.858.577-5.089 1.605-6.693 3.085h-3.045l-2.256.564c-2.507 1.004-4.913 1.468-7.219 1.392zm29.213-.565c.376-1.33 1.028-2.17 1.956-2.52.3 1.554-.351 2.395-1.956 2.52zm-115.424-.301c-.627-.727-1.09-1.467-1.391-2.22l.564-1.956c1.854-2.734 2.782-5.518 2.782-8.353.501-.953 1.153-1.592 1.955-1.918 1.053 4.013.589 7.537-1.391 10.572-.075 1.48-.451 2.771-1.128 3.875h-1.391zm110.123-5.267c2.482-1.054 4.437-2.358 5.865-3.913l1.655-.828c3.559-.25 6.53-1.367 8.91-3.348.853.225 1.492.602 1.918 1.128.802 2.684-.125 4.264-2.782 4.74-3.159 2.008-6.492 2.283-10.001.829-1.655 1.605-3.321 2.533-5 2.784l-.565-1.392zm-50.606-15.05c-1.279-2.683-.815-4.163 1.39-4.44v3.914l-1.39.526zM697.793 54.46c-1.027-1.405-.752-2.333.828-2.784 1.178 1.254.902 2.182-.828 2.784zm-40.605-4.139c-.577-1.153-.664-2.27-.263-3.348 1.078-.577 2.093-.853 3.045-.828 2.432 2.383 1.504 3.775-2.782 4.176zm42.824-4.176c3.885.251 3.885 1.355 0 3.311v-3.31zm41.17-1.392c-.327-1.053-.427-1.981-.302-2.784 4.412-.426 4.512.502.301 2.784zM723.66 38.32c-.953-1.38-.025-2.584 2.782-3.612 1.002.476 1.19 1.216.564 2.22-1.078.877-2.193 1.341-3.346 1.392zm-7.52-5.531c-1.028-.702-1.767-1.455-2.218-2.257l.263-1.392c6.567-4.515 13.335-5.619 20.303-3.311l.865 1.919c-2.858.576-5.089 1.605-6.693 3.085h-3.045l-2.256.564c-2.507 1.003-4.913 1.467-7.219 1.392zm29.213-.564c.376-1.33 1.028-2.17 1.956-2.521.3 1.555-.351 2.395-1.956 2.52zm-115.424-.301c-.627-.728-1.09-1.468-1.391-2.22l.564-1.956c1.854-2.734 2.782-5.519 2.782-8.353.501-.953 1.153-1.593 1.955-1.919 1.053 4.014.589 7.538-1.391 10.572-.075 1.48-.451 2.772-1.128 3.876h-1.391zm110.123-5.268c2.482-1.053 4.437-2.357 5.865-3.912l1.655-.828c3.559-.25 6.53-1.367 8.91-3.349.853.226 1.492.602 1.918 1.13.802 2.683-.125 4.263-2.782 4.74-3.159 2.006-6.492 2.282-10.001.827-1.655 1.606-3.321 2.534-5 2.784l-.565-1.392zm-50.606-15.049c-1.279-2.684-.815-4.163 1.39-4.44v3.913l-1.39.527zm28.647 25.38c-.979 1.422-.6 2.054 1.137 1.896 1.452-1.106 1.074-1.738-1.137-1.896zm272.373 13.74c.884-1.8 1.58-1.61 2.084.57l-1.326.19-.758-.76zm5.684.19c-.284-.947-.032-1.58.758-1.895.568 1.042.315 1.674-.758 1.895zm17.808-1.895c-.315-1.012-.442-1.896-.378-2.655 1.515-.695 2.273-.19 2.273 1.517-.442.822-1.074 1.2-1.895 1.138zm-22.166-1.517c-.757-.79-1.136-1.675-1.136-2.654 1.39-1.643 2.652-1.706 3.789-.19-.221 1.643-1.105 2.591-2.653 2.844zm11.747-1.138c-.916-1.01-1.358-2.085-1.327-3.222 1.106-1.833 2.116-1.896 3.032-.19.284 1.611-.285 2.749-1.705 3.412zm26.334-1.516c1.263.063 1.263.379 0 .948v-.948zm1.326-1.517c-1.295-1.453-2.116-2.907-2.463-4.36 3.284-.885 4.23-2.528 2.842-4.93l.568-.758c.947-.158 1.705-.158 2.273 0 .41 1.011.98 1.833 1.705 2.465-.157.853-.6 1.359-1.326 1.517.695 1.674 1.074 3.19 1.137 4.55-1.547 1.137-3.126 1.643-4.736 1.516zm5.873-2.085c1.263-.348 1.957-1.043 2.084-2.086.41.853.537 1.675.379 2.465-.916.032-1.674.158-2.274.38l-.19-.76zm-40.354-1.138c-1.515-.821-2.147-1.959-1.894-3.412 3.6-2.149 5.873-2.528 6.82-1.138.126.443.19.885.19 1.327l-.569.19-.379.19-.568.19c-1.074 1.295-2.274 2.18-3.6 2.653zm88.285-.568c-.663-.727-.915-1.486-.757-2.275 4.136-.917 5.273-.222 3.41 2.085l-2.653.19zm-19.513-.38c-.348-1.832-.095-2.022.758-.568l-.758.568zm-52.668-.948h-.38.38zm24.629-.568c0-.632-.063-1.138-.19-1.517.032-1.453-.031-2.717-.19-3.792 3.916.253 5.748 1.328 5.495 3.223-.347 2.212-1.737 3.097-4.168 2.654l-.947-.568zm-9.473-3.792c1.484-.19 1.547.19.19 1.138l-.19-1.138zm31.639-3.223c.79.19.79.38 0 .569v-.569zm-20.84.19c-1.326-.885-1.642-2.022-.947-3.413.347-1.548 1.231-1.864 2.652-.948 3.157 2.907 2.59 4.36-1.705 4.36zm17.998 0c-.474-.664-.726-1.359-.758-2.086 2.4-.22 2.652.474.758 2.086zm-26.334-.948c.726-1.928.979-3.444.758-4.55l.379.569.568.19c.853.979 1.673 1.737 2.463 2.274v1.138c-1.2.6-2.337.916-3.41.948l-.758-.57zm29.555-1.517c-1.295-1.169-2.053-2.306-2.274-3.412 1.895-1.896 3.284-1.896 4.168 0 .221 1.706-.41 2.843-1.894 3.412zm-15.725-.948c-.126-.158-.253-.22-.379-.19l-.379-.378-2.463-1.896-.19-.569.19-3.412c-.979-.285-1.8-.474-2.463-.57 1.169-1.137 2.432-1.326 3.79-.568 1.705-1.706 2.841-1.517 3.41.569 1.263 3.412.757 5.75-1.516 7.014zm-9.094-1.327c.537-1.516 1.484-2.528 2.842-3.033-.032 1.896-.979 2.907-2.842 3.033zm-46.226-1.516c-1.453-.57-2.21-1.517-2.274-2.844 2.116-2.528 3.631-2.212 4.547.948-.347 1.2-1.105 1.832-2.273 1.896zm68.013-3.602c-2.02-1.675-2.02-3.192 0-4.55 1.074.695 1.642 1.643 1.705 2.843-.442.885-1.01 1.454-1.705 1.707zm-44.9-2.655c-.758-.916-1.137-1.864-1.137-2.843l1.137-1.517c1.926 1.548 1.926 3.002 0 4.36zm22.355-5.118c-1.01-.506-1.642-1.201-1.894-2.086 1.831-1.074 3.41-.948 4.736.38-.726 1.042-1.673 1.61-2.842 1.706zm22.545-6.825v-.759c1.895-1.105 3.537-1.042 4.926.19-.126 1.327-.82 2.085-2.084 2.275l-2.842-1.706z"/>
</svg>
