<svg xmlns="http://www.w3.org/2000/svg" width="375" height="512" viewBox="0 0 375 512">
    <path fill="#000" fill-rule="evenodd" d="M375 140.63V512H0V103.502a5.671 5.671 0 0 1-2.07.067c-2.156 1.078-3.911.339-5.264-2.218-.752-2.582.538-3.697 3.872-3.346.36-3.413 1.513-4.956 3.462-4.627v-.728a11.45 11.45 0 0 0-1.507-1.338c.326-1.153.414-2.443.263-3.872-.902-.176-1.83.012-2.782.564l-.526-.3c.075-3.084 1.278-6.142 3.61-9.175l-.565-1.09c-1.278.326-2.018 1.34-2.218 3.045C-7.36 79.407-8.287 77-6.507 73.266c-1.58-3.986-.1-6.868 4.436-8.648-.576-2.306-.576-4.988 0-8.046-.727-2.105-.814-4.424-.263-6.955C-.83 50.72-.191 52.299-.417 54.354c.14.086.278.165.417.237V44.446a34.159 34.159 0 0 1-2.07-.657c-.978.025-1.993-.163-3.046-.564h-1.128c-.527-.376-1.078-.94-1.654-1.692 1.228-.25 2.707-.338 4.436-.263h.827l.865-.263h3.873c.927.075 1.942-.025 3.045-.3 1.278.35 2.857.538 4.737.563l1.391-.827c.452-1.654-.012-3.146-1.39-4.474-.076-2.457-1.003-4.763-2.783-6.918-.025-.777.25-1.617.827-2.52 1.253-.024 2.745.063 4.474.264.853 1.754 2.331 3.146 4.437 4.173-.978 2.582-.79 5.176.564 7.783v2.519c.927.802 2.13 1.266 3.61 1.391.876.652 1.992 1.304 3.345 1.955l.828.564 1.127.263c.401.401.953.777 1.655 1.128.902 1.404 2.105 2.695 3.61 3.873.046.094.096.187.15.278l25.052 6.886a8.322 8.322 0 0 0 1.228-1.036c1.905-.4 3.572-1.428 5-3.083l4.437.564.564.301-5 3.873c-1.534-.488-2.948-.512-4.244-.073l25.19 6.924c31.76-6.055 58.508-8.806 80.245-8.252.198-.233.368-.464.51-.692-2.382.853-3.773-.626-4.174-4.436-3.334.35-4.624-.765-3.872-3.346 1.353-2.557 3.108-3.296 5.263-2.218 2.331-.326 4.186.601 5.565 2.782 1.428-3.083 1.516-6.053.263-8.91V36.96c.4-1.254.965-2.269 1.692-3.046 2.306.502 3.973 2.532 5 6.091l1.655-.526c1.052-2.532 2.72-3.923 5-4.174l.865 1.655v1.955c-1.78 2.581-1.604 4.988.526 7.219h1.391l.301-.564.263-1.655c.928-1.78 1.391-3.546 1.391-5.301l1.955-.827 1.128.827v2.782c-1.027 1.78-1.128 3.447-.3 5-.477 1.254-.477 2.37 0 3.347 1.78-.526 3.17-1.266 4.173-2.218 2.08-.276 3.56-1.203 4.436-2.783 2.281-.626 4.424-.714 6.43-.263l1.654-2.519c1.905-1.178 3.296-2.569 4.173-4.173 1.68-1.228 2.795-2.707 3.346-4.437l1.09-.827c1.38-.225 2.495-.225 3.347 0l.564 1.654c-1.003.853-1.654 1.78-1.955 2.783-1.654.45-2.67 1.378-3.046 2.782-1.178.727-2.017 1.654-2.519 2.782-1.73 1.003-2.657 2.394-2.782 4.173-1.98 1.705-4.023 2.908-6.128 3.61l-.827 1.955c3.559 1.379 6.153.263 7.782-3.346h1.955c.376.702.564 1.441.564 2.218-3.194 2.35-4.53 4.003-4.01 4.962.095.088.175.185.24.291.346.301.952.505 1.815.612l2.52-.865.526-2.218c4.336-5.113 6.654-5.765 6.955-1.955-1.078 1.504-1.717 2.995-1.917 4.474-.775.775-1.376 1.586-1.802 2.433 2.297-.433 5.06-.721 9.242-.536.115-.079.23-.16.342-.242 1.905-.376 3.472-.84 4.7-1.392.301-2.732 1.053-5.05 2.256-6.955h.827l1.955-.263c.847 1.175 1.783 1.968 2.809 2.38.173-.084.344-.175.515-.273h.19-.19.379-.19.19c.181.19.343.387.486.59a5.484 5.484 0 0 0 1.902-.216c3.46.451 6.241-.84 8.347-3.872a5.709 5.709 0 0 1 2.033.168c.03-.377.132-.783.304-1.217 1.516-.095 3.031.347 4.547 1.326.632 1.484 0 2.495-1.894 3.031-.783-.226-1.411-.514-1.884-.864a4.608 4.608 0 0 1-.587 1.729c-1.23.332-2.337.527-3.324.584.025 1.81-.633 2.526-1.973 2.151a6.896 6.896 0 0 1-.345-1.603l-.487.259-1.39 1.09c-1.762.515-3.354 1.158-4.778 1.929l-.01.03-.061.009a18.04 18.04 0 0 0-3.198 2.206c-.57.18-1.117.317-1.639.412.495.071 1.003.146 1.523.226.1-.13.215-.26.344-.39.74.15 1.257.38 1.553.69 6.426 1.05 14.66 2.708 25.42 5.223 2.636.616 5.252 1.166 7.847 1.648-1.14-1.449-.938-3.148.608-5.098.852 0 1.736.253 2.652.758v2.463l.19.379c-.127.378-.19.884-.19 1.515l.19.569c1.705-1.2 3.725-1.832 6.062-1.895-.221.41-.6.853-1.137 1.326.01.442.052.886.128 1.333.919.12 1.835.232 2.75.335.022-.295.074-.598.153-.91l.758-.758c.853-.126 1.737-.568 2.653-1.326l.379-.19c.6.853.852 1.863.757 3.032-.344.172-.642.35-.892.533 13.45 1.17 26.296.416 38.54-2.26l-.007-.026 5.21-2.463.237-.52.569-.285.805-.284h1.09c-.064-1.768.3-3.852 1.089-6.252 1.547-.631 2.92-1.642 4.12-3.031 3.158-.6 4.058-3.679 2.7-9.236 1.515-2.873.884-5.147-1.895-6.82-.568-1.579-1.752-2.574-3.552-2.984-.758-.853-1.752-1.674-2.984-2.463l-.284-.568-.521-.237-1.658-1.09-.568-.852-.805-.521c-1.8.158-3.79-.032-5.968-.568l-1.942-.237-1.61-1.09c-.38-1.042-1.105-1.957-2.179-2.747-1.705-3.347-.979-6.157 2.179-8.43h3.552c1.2 1.926 2.92 3.473 5.163 4.641l.284.521c3.726-.031 7.53-1.12 11.414-3.268l4.926-.284h1.61c1.705 1.137 3.805 1.958 6.3 2.463.852 2.936 2.763 5.21 5.73 6.82h4.358v-2.179c2.873-1.136 5.952-1.326 9.236-.568.379 1.042 1.105 1.958 2.179 2.747-.41 5.431-2.132 8.605-5.163 9.52l-.568 1.09c.252 1.168.173 2.447-.237 3.836 1.073.253 2.336.347 3.789.284.41-.916.6-1.926.568-3.031.884 0 1.879.19 2.984.568h2.179l.284.521h.805c-.094 1.042.363 1.69 1.374 1.942.347.979.979 1.974 1.894 2.984-.094 2.59-1.452 4.405-4.073 5.447v1.09c-1.168.094-1.894.82-2.179 2.178H375v10.66c.36-.086.724-.182 1.095-.288h1.09l1.373 2.18h2.415c.979.82 2.163.994 3.552.52.695 1.2 1.248 2.747 1.658 4.642 1.137.505 2.495.868 4.073 1.09l2.18-5.163h2.983c.663 1.042 1.12 2.4 1.373 4.073 1.106.347 2.29.979 3.553 1.894.126 4.516-1.784 5.7-5.731 3.553-3.852-1.706-4.484-.806-1.895 2.7l1.326 1.089c1.263-.695 2.716-1.058 4.358-1.09 2.4 3.947 5.857 4.863 10.372 2.747.032-1.61-.142-3.615-.52-6.015v-1.326l.805-1.09c2.494-2.115 5.494-2.4 8.999-.852l1.61-1.09c-.758-4.988-.49-9.614.805-13.877 6.094-1.831 11.825-.11 17.193 5.163v1.373c2.242 2.463 2.242 5.195 0 8.194v1.61l1.09.806c.284 1.42.915 2.873 1.894 4.357 4.42-.284 6.789 1.91 7.104 6.584-2.526 2.178-5.62 2.81-9.283 1.894l-1.09 1.09c-.252.978-.789 2.163-1.61 3.552v14.683c-.694 1.326-1.784 2.7-3.268 4.12l-.284.521c-.19.063-.379.253-.568.568-.158.032-.332.206-.521.521l-.568.285-.237.52c-.284.79-.742 1.516-1.374 2.18l-.284.568-.805.805H425.4c-.884 1.042-2.242 1.405-4.073 1.09l-1.658 1.089-.284 1.657c-1.674 2.053-2.668 4.768-2.984 8.147-.379.726-.647 1.547-.805 2.463l-.284.805v.852c-.853 1.421-1.674 3.316-2.463 5.684-.127.284-.206.647-.237 1.09l-1.09.852c-.22-.853-.22-1.768 0-2.747l2.7-6.82v-.806l.284-.52.806-2.18v-.852l.568-1.61.52-1.09v-1.373l.57-1.09c-1.2-.252-2.385-.884-3.553-1.894-1.926 1.99-3.379 4.626-4.357 7.91-1.01 1.515-1.832 3.504-2.463 5.967l-.805.569-.569-1.942.284-1.61.569-1.895c.79-1.01 1.42-2.384 1.894-4.12l.284-.806c.38-.82.648-1.736.806-2.747l.52-1.09.285-.804.284-1.09c-2.652.6-5.194 1.958-7.626 4.073h-.805c-.82.98-1.642 2.258-2.463 3.837l-1.657 1.373c-.79.79-1.61 1.974-2.463 3.553l-.805.52-.521.806-.853.852c-.379.727-1.01 1.532-1.894 2.416l-.521.852-.285 1.09-.805 1.09c-.252.22-.616.394-1.09.52l.238-1.61 2.747-4.12.52-.522c.411-.884 1.137-1.879 2.18-2.984l.568-1.089 3.552-3.552 1.326-2.463-2.415.52c-.758 1.327-1.942 2.7-3.553 4.121l-.284.521-.284.853-.52.521-.285.805c-.663.442-1.295 1.09-1.895 1.942-.757.379-1.578 1.105-2.463 2.179-.568.758-1.105 1.657-1.61 2.7l-1.09.284c-.126-.853.048-1.769.522-2.747 2.715-2.716 4.894-6.347 6.536-10.894-1.8 1.39-3.52 3.394-5.163 6.015-.79.6-1.42 1.421-1.894 2.463h-1.374c-.6.537-1.231 1.263-1.894 2.179l-2.747 1.894-.285.805-2.462 2.18-.521.804-.569.853H375zm0-2.128c1.32-.91 2.585-2.206 3.794-3.887l.853-.521.237-.569c.19-.031.379-.205.568-.52.758-.38 1.579-1.027 2.463-1.942l.521-.806.805-.52.284-2.18c7.8-10.925 5.526-11.02-6.82-.284-.379-1.01-.095-2.02.853-3.03a9.459 9.459 0 0 0-3.558 2.115v12.144zm-42.527-73.988v-.47a4.139 4.139 0 0 0-2.178 1.086c.728-.198 1.454-.404 2.178-.616zM265.691 46.06c.676.784.238 1.679-1.314 2.685a5.604 5.604 0 0 1-.372-.957h-1.69c-.351-1.078-.351-2.093 0-3.046 1.028-.802 1.767-1.629 2.218-2.481l.865-.564.526-1.128.865-.827.526-.827c.318-.196.505-.38.56-.55-1.108-.422-1.074-1.066.102-1.934.736.25 1.156.534 1.26.853.234-.207.432-.403.597-.587l.564-.301.264-.564c1.228-.953 2.155-1.968 2.782-3.046l1.955-.827c.702-1.78 1.529-3.17 2.481-4.173 1.153-.376 2.181-.476 3.083-.3-1.128 2.706-2.895 4.56-5.3 5.564l-.264.563-3.045 5.565-1.128.564-.828.827c-.145.204-.282.401-.41.59.221.232.435.488.641.766l-.19 1.137c-1.343 1.075-2.366 1.435-3.066 1.08a6.02 6.02 0 0 0-.584 1.164c-.398.244-.764.495-1.098.754zm-28.447-6.565c-.002-.363.075-.816.231-1.36.347 0 .726-.062 1.137-.189.443.526.546 1.125.31 1.797 1.81.478 1.173 1.493-1.91 3.044V39.48l.232.016zM-15.68 31.532c1.98.276 2.068-.188.263-1.39l-.263 1.39zm-5.865 9.738l.864-.564c2.858.25 3.221.714 1.09 1.391-5.188 2.532-8.333 2.444-9.436-.263l.827-.827h1.654c.902.15 2.018.238 3.346.263h1.655zm5.865 0c.802 1.404 1.353 1.404 1.654 0h-1.654zm67.3 11.693c1.228.05 2.33.326 3.308.827.05.953-.413 1.604-1.39 1.955-3.46-.175-4.099-1.103-1.918-2.782zM-18.764 67.55v.15-.15zm0 0v-.15.15zm0-.677v-.564.564zm-26.958.263l1.655-.564c.476.2.752.577.827 1.128-1.078.702-1.905.514-2.482-.564zm33.35 11.13c.075 2.255.538 2.443 1.39.563l-1.39-.564zM-22.938 92.44l4.474 1.392c.777.325 1.704.513 2.782.564 1.454 1.554 3.484 2.669 6.09 3.346l.565.827-3.046.564c-1.128-.928-2.519-1.492-4.173-1.692-2.431.1-4.75-.727-6.956-2.482-.426 2.808-1.165 4.562-2.218 5.264-2.055-3.233-1.228-5.827 2.482-7.783zm-22.22 1.956c-.477.751-.665 1.49-.565 2.218 3.785 0 3.973-.74.564-2.218zm186.22-37.134c-3.71-1.955-4.537-4.549-2.482-7.782 1.053.702 1.792 2.456 2.218 5.263 2.206-1.754 4.525-2.581 6.956-2.481 1.654-.2 3.045-.765 4.173-1.692l3.046.564-.564.827c-2.607.677-4.637 1.792-6.091 3.346-1.078.05-2.005.238-2.782.564l-4.475 1.391zm-22.22-1.955c-.477-.752-.665-1.491-.565-2.218 3.785 0 3.973.74.564 2.218zm120.688-4.436c-.827-.727-1.391-1.567-1.692-2.52 2.005-1.628 3.308-1.353 3.91.828-.576.927-1.316 1.491-2.218 1.692zm-4.738-3.083c-1.027-1.404-.752-2.331.828-2.782 1.178 1.253.902 2.18-.828 2.782zm-40.605-4.136c-.577-1.153-.664-2.268-.263-3.346 1.078-.577 2.093-.852 3.045-.827 2.432 2.38 1.504 3.772-2.782 4.173zm83.993-5.564c-.326-1.053-.426-1.98-.3-2.783 4.41-.426 4.511.502.3 2.783zm-17.52-6.43c-.953-1.378-.025-2.581 2.782-3.609 1.002.476 1.19 1.216.564 2.218-1.078.878-2.193 1.341-3.346 1.391zm-7.52-5.526c-1.028-.702-1.767-1.454-2.218-2.256l.263-1.391c6.567-4.512 13.335-5.615 20.303-3.309l.865 1.917c-2.858.577-5.089 1.605-6.693 3.083h-3.045l-2.256.564c-2.507 1.003-4.913 1.467-7.219 1.392zm29.213-.564c.376-1.329 1.028-2.169 1.956-2.52.3 1.555-.351 2.394-1.956 2.52zm-115.424-.301c-.627-.727-1.09-1.466-1.391-2.218l.564-1.956c1.854-2.732 2.782-5.514 2.782-8.346.501-.953 1.153-1.592 1.955-1.918 1.053 4.01.589 7.532-1.391 10.565-.075 1.48-.451 2.77-1.128 3.873h-1.391zm110.123-5.264c2.482-1.053 4.437-2.356 5.865-3.91l1.655-.827c3.559-.25 6.53-1.366 8.91-3.346.853.225 1.492.601 1.918 1.128.802 2.682-.125 4.26-2.782 4.737-3.159 2.005-6.492 2.28-10.001.827-1.655 1.604-3.321 2.532-5 2.782l-.565-1.39zM226.447 4.964c-1.279-2.682-.815-4.16 1.39-4.436v3.91l-1.39.526zm35.846 26.351c1.674.537 2.053 1.674 1.137 3.41-1.926.632-3.126.127-3.6-1.515.632-.379 1.264-.947 1.895-1.705.19 0 .379-.063.568-.19zm21.598 6.631c2.21 1.358 2.21 2.621 0 3.79l-.758-.569c-.126-1.105.127-2.179.758-3.22zm-11.178 1.895c2.432.19 2.558-.253.38-1.326l-.38 1.326zm-40.732-.758l.947.379c.853 3.568.158 4.894-2.084 3.978-.41-.694-.663-1.515-.758-2.462.442-.727 1.074-1.358 1.895-1.895zm44.9 8.715c.79.19 1.232.758 1.327 1.705-.474 1.263-1.295 1.452-2.463.568.126-.758.505-1.515 1.136-2.273zm6.252 4.168c1.2.22 1.39-.032.569-.758l-.569.758zm-17.43-.38c3.253 1.232 3.632 2.243 1.137 3.032-.379-.316-.884-.631-1.515-.947-.127-.663 0-1.358.379-2.084zm10.989 0c1.042.127 1.673.759 1.894 1.895-.915 2.305-2.241 2.432-3.978.38.379-.948 1.073-1.706 2.084-2.274zm10.61 2.085c-1.327 1.642-.632 2.526 2.083 2.652 1.516-1.61.821-2.494-2.084-2.652zm-36.186 1.326c1.452.032 2.4.79 2.842 2.274-.821.663-1.895 1.168-3.221 1.515.158.916.095 1.863-.19 2.842-3.284.6-4.483-.726-3.6-3.979 1.359-.22 2.432-.978 3.221-2.273.285-.063.6-.19.948-.379zm3.41 1.516l2.652-1.516c1.042.347 1.547 1.105 1.516 2.274-1.642 1.484-3.031 1.231-4.168-.758zm10.04-.948c1.232.064 2.116.758 2.653 2.084 1.61-.315 2.81.127 3.6 1.327-.032.41.158.852.568 1.326v.568c-.915.032-1.989-.095-3.22-.379-.316-.694-.821-1.39-1.516-2.084-.568.127-1.326.19-2.274.19-.852-1.042-.789-2.053.19-3.032zm-24.439 1.516l1.137-.947c.79 0 1.61.19 2.463.568.158 1.074-.284 1.895-1.326 2.463-1.295.063-2.053-.631-2.274-2.084zm50.963.947c.727.032 1.295.41 1.705 1.137-.284 1.768-1.294 2.147-3.03 1.137.283-.695.725-1.453 1.325-2.274zm-29.744 1.895c.537 2.21 1.042 2.273 1.516.19l-1.516-.19zm16.672.19h1.326c.537.82 1.358 1.515 2.463 2.083-.884.695-2.02 1.137-3.41 1.326-.379-.315-.884-.631-1.516-.947.063-.82.442-1.642 1.137-2.463zm6.441.757c.632.6.632 1.232 0 1.895-.789.663-1.357.473-1.705-.569.41-.22.853-.6 1.327-1.136.126.031.252-.032.378-.19zm-20.082 1.137c.758.505 1.453.82 2.084.947-.284-.947-.978-1.263-2.084-.947zm-1.515.568c.663.126.916.569.758 1.326-.442.916-1.2 1.106-2.274.569v-.948c.348-.315.853-.631 1.516-.947zm26.334 1.705c-1.137 1.137-.947 1.895.568 2.274 1.421-1.105 1.232-1.863-.568-2.274zM413.7 13.365h1.326c1.926.379 3.3 1.657 4.121 3.836.253 2.053-.568 3.679-2.463 4.879-.158.631-.52 1.357-1.09 2.178l.522 2.463c3.441 3.474 3.805 9.189 1.09 17.146.978 6.22-1.738 9.772-8.147 10.656-2.116 2.621-5.116 3.71-9 3.269-.82-2.18-2.368-3.916-4.641-5.21l-1.09-4.595-.52-.284v-.805a1.929 1.929 0 0 1-1.09-.568c-.284-1.453-.931-2.905-1.942-4.358l.569-5.447V30.51l-.284-1.61c.789-1.074 1.973-1.532 3.552-1.374.537-1.263.805-2.62.805-4.073 3.347-3.726 7.8-5.904 13.356-6.536.916-1.8 2.558-2.984 4.926-3.552zm43.574 77.676h10.61c1.642 1.01 2.557 2.636 2.747 4.878.852.631 1.405 1.547 1.658 2.747 4.957 1.516 5.762 3.963 2.415 7.341-1.452-.063-3.173.127-5.163.569l-1.089-1.374-1.09-1.658h-1.894l-.568-1.089-1.895-.52c-1.263-.317-2.81-.506-4.641-.57l-.805-.283-.806-.237-3.268-.284h-1.657l-.806-.285v-2.178c2.59-.474 3.947-2.29 4.074-5.447.757-.284 1.484-.821 2.178-1.61z"/>
</svg>
