<svg xmlns="http://www.w3.org/2000/svg" width="370" height="190" viewBox="0 0 370 190">
    <path fill="#000" fill-rule="evenodd" d="M84.247 205.448c-1.624-2.358-.995-3.406 1.886-3.144 2.41 1.834 1.782 2.882-1.886 3.144zm11.946-18.232c2.777-.89 3.405-2.777 1.886-5.658-3.196-1.048-5.187-.21-5.973 2.515 1.048.628 2.096 1.571 3.144 2.829.314 0 .628.104.943.314zm9.43-8.487c-2.2-1.624-1.99-2.777.63-3.458 2.2 1.414 1.99 2.567-.63 3.458zm-48.725-2.515c.839-.995.943-2.148.315-3.458.262-.052.471-.262.628-.629-2.881-.943-3.824.315-2.829 3.773.576 0 1.205.104 1.886.314zm75.131 0c3.668-2.253 3.668-4.348 0-6.287l-1.257.943c-.21 1.834.21 3.615 1.257 5.344zm-18.547-3.143c4.034-.315 4.244.419.629 2.2l-.629-2.2zm-67.586 1.257l1.572-.629c1.414-5.92.262-8.12-3.458-6.601-.681 1.153-1.1 2.515-1.258 4.086.734 1.205 1.782 2.253 3.144 3.144zm60.042-1.257c1.52-.682 2.881-1.834 4.086-3.458l-.314-1.886c-4.191-3.353-6.497-2.515-6.916 2.514.786.943 1.834 1.886 3.144 2.83zm-7.23-8.488c-.262-2.41.052-4.505.943-6.287 3.877 2.515 3.562 4.61-.943 6.287zm-20.748-3.458c2.515.158 5.03-.576 7.545-2.2 1.047-2.462 0-4.139-3.144-5.03-4.349 1.258-5.816 3.668-4.4 7.23zm42.438-1.257c1.31-.314 2.043-1.257 2.2-2.829-.785-2.096-2.148-2.41-4.086-.943.21 1.257.838 2.515 1.886 3.772zm-49.04-5.658h-.314.315zm0 0l1.258-.943c.524-4.296-.524-6.077-3.143-5.344-.367 1.048-.577 2.2-.63 3.458.42.838 1.153 1.781 2.201 2.829h.315zm59.414-1.257c1.99-.367 2.305.052.943 1.257l-.943-1.257zm-75.131.628h.314-.314.629-.315.315c2.148-2.253 2.672-5.082 1.571-8.487-4.872-.681-7.387 1.624-7.544 6.916 1.834.052 3.615.576 5.344 1.571zm46.21 0c5.397-2.043 6.025-3.72 1.886-5.03-.628.525-1.467 1.049-2.515 1.572-.21 1.1 0 2.253.63 3.458zm18.233 0c1.729-.21 2.777-1.257 3.143-3.143-1.52-3.825-3.72-4.034-6.601-.629.629 1.572 1.781 2.83 3.458 3.772zm17.604-3.458c-2.2-2.724-1.048-4.19 3.458-4.4 2.514 2.672 1.362 4.139-3.458 4.4zm-60.042-2.2c2.41-.052 3.982-1.31 4.715-3.772-1.362-1.1-3.143-1.939-5.344-2.515.262-1.52.157-3.09-.314-4.715-5.45-.995-7.44 1.205-5.973 6.601 2.253.367 4.034 1.624 5.344 3.772.472.105.995.315 1.572.63zm5.658-2.515l4.401 2.515c1.73-.576 2.567-1.834 2.515-3.772-2.724-2.462-5.03-2.043-6.916 1.257zM2.2 146.98c2.882-.524 3.51-2.41 1.887-5.658h-2.2L0 143.837c.314 1.047 1.048 2.095 2.2 3.143zm97.765 0c2.043-.105 3.51-1.257 4.4-3.458 2.673.524 4.664-.21 5.974-2.2-.053-.681.262-1.415.943-2.2v-.944c-1.52-.052-3.301.158-5.344.63-.524 1.152-1.362 2.304-2.515 3.457-.943-.21-2.2-.314-3.772-.314-1.415 1.728-1.31 3.405.314 5.029zm-40.552-2.515l1.886 1.572c1.31 0 2.672-.314 4.087-.943.262-1.781-.472-3.143-2.2-4.086-2.149-.105-3.406 1.047-3.773 3.457zm84.562-1.571c1.205-.053 2.148-.682 2.829-1.886-.472-2.934-2.148-3.563-5.03-1.887.472 1.153 1.205 2.41 2.2 3.773zm-91.163-1.886c3.615-.734 4.034-2.62 1.257-5.659l-1.257-.314c-1.886 2.096-1.886 4.086 0 5.973zm41.809-1.258c.89-3.667 1.729-3.772 2.515-.314l-2.515.314zm27.663-.314h2.2c.891-1.362 2.254-2.515 4.087-3.458-1.467-1.153-3.353-1.886-5.658-2.2-.629.524-1.467 1.047-2.515 1.571.105 1.362.734 2.725 1.886 4.087zm10.688-1.258c1.048-.995 1.048-2.043 0-3.143-1.31-1.1-2.253-.786-2.829.943.681.367 1.415.995 2.2 1.886.21-.052.42.052.63.314zm-21.376-1.257c1.415 0 2.882-.42 4.401-1.257v-4.087l.314-.628c-.21-.63-.314-1.467-.314-2.515l.314-.943c2.83 1.99 6.183 3.038 10.06 3.143-.367-.68-.996-1.414-1.886-2.2.052-2.567.786-5.187 2.2-7.859l.629-1.886v-.943c-.576-.629-1.1-1.467-1.572-2.515.943-.314 2.2-.524 3.772-.628l1.258.943c-.629 1.781-.734 3.667-.315 5.658-1.205 1.729-1.519 3.72-.943 5.972l1.258 1.258c1.414.21 2.881.943 4.4 2.2l.63.315c.995-1.415 1.414-3.092 1.257-5.03-4.087-2.043-4.192-4.558-.314-7.544-.63-1.205-.42-2.358.628-3.458 1.153.157 2.515.576 4.087 1.257l2.2-1.257c2.044-1.257 2.568-2.83 1.572-4.715.786-.42 1.624-1.048 2.515-1.886l5.03.943h2.514c1.048.052 2.201.367 3.458.943l3.144.943h5.973c.89.367 1.729.995 2.515 1.886 1.257-.681 1.886-1.834 1.886-3.458-2.2-1.52-4.82-2.357-7.86-2.515l-.628-.628c-.576-.472-1.1-1.1-1.572-1.886-1.152.262-2.2.68-3.143 1.257-1.677-2.2-3.982-3.982-6.916-5.344-.786 1.782-2.148 3.353-4.087 4.715-.366-.628-.576-1.467-.628-2.514 3.038-1.258 3.248-4.192.628-8.802 2.568-4.453 2.672-8.33.315-11.63-2.148.314-3.93 1.885-5.344 4.714-3.458-.523-6.916-2.095-10.374-4.715H131.4l-1.571.315c-.21-1.782.314-3.353 1.571-4.715 5.397 4.453 8.33 4.034 8.802-1.258l-1.257-1.572c-2.567 0-5.292.63-8.173 1.886-1.048-.89-2.096-2.043-3.144-3.457l-1.886-1.258-.314-.628-.629-.629c.262-.89.367-1.938.314-3.143-.995-.158-2.252-.158-3.772 0-2.305 2.148-2.515 5.396-.629 9.744-1.205.157-2.567.053-4.086-.314-.734-2.672-2.2-5.082-4.401-7.23.314-1.257.943-2.62 1.886-4.087l-1.257-6.286c-3.72-.105-6.13 1.78-7.23 5.658-2.358-.734-4.559-.21-6.602 1.571v2.2c4.715 1.94 7.859 1.94 9.43 0 1.048-.051 1.991.263 2.83.944-1.362 1.781-3.144 2.515-5.344 2.2l-1.258 1.258c-5.658-1.886-10.164-1.362-13.517 1.571-2.62-1.047-4.925-.21-6.916 2.515l.943 1.886c3.668.367 6.392 2.358 8.174 5.973 4.715 2.776 5.344 6.339 1.886 10.687-.053 1.205-.472 2.463-1.258 3.773-.838 0-1.886.314-3.143.943-.21 1.467-.105 3.143.314 5.03l-.314.942c-5.816-1.52-8.645.472-8.488 5.973-.629-.158-1.257-.472-1.886-.943-1.31.68-2.882 1.1-4.715 1.257 1.571-3.93 1.152-5.92-1.258-5.973 1.362-5.186-.733-8.12-6.287-8.801 0-4.873-2.2-6.654-6.601-5.344-1.1 1.624-1.415 3.615-.943 5.973 1.467.838 3.353 1.362 5.658 1.571 2.253 3.458 3.3 7.44 3.144 11.945l.628 1.258c4.82 1.047 4.401 3.772-1.257 8.173-4.663 7.072-7.283 5.815-7.86-3.773-.942-.628-2.095-.943-3.457-.943l-.314 1.886c.628 2.777.419 5.711-.63 8.802-1.676-.105-3.352.21-5.029.943-.21.89-.314 1.939-.314 3.144 3.615.68 7.702-.786 12.26-4.401 1.414.366 2.672 1.1 3.772 2.2l3.458.314c1.048-1.31 2.515-2.357 4.4-3.143l1.573-1.257c.052-.21.262-.42.628-.629l1.887-1.257c-.42-3.353.733-5.659 3.457-6.916 2.934.367 3.458 2.043 1.572 5.03l.629 2.829c2.934.786 5.134 2.672 6.601 5.658 1.887-2.253 1.782-6.34-.314-12.26.89-.471 2.043-.785 3.458-.943 1.467-4.348 3.248-5.815 5.344-4.4-.629 1.414-.838 3.09-.629 5.03h1.886l1.258-1.887c5.92-1.572 6.549.21 1.886 5.344 0 .576-.105 1.205-.314 1.886l.314 2.2 1.257 1.572c2.148-1.048 4.663-1.257 7.545-.629-4.453 2.83-4.977 6.392-1.572 10.688zm-49.354-.314c.472-.681 1.1-.996 1.886-.943-.471.628-1.1.943-1.886.943zm37.409-.315c1.257-.838 2.41-1.362 3.458-1.571-.472 1.571-1.625 2.095-3.458 1.571zm-2.515-.943c1.1-.21 1.52-.943 1.257-2.2-.733-1.52-1.99-1.834-3.772-.943v1.572c.576.524 1.415 1.047 2.515 1.571zm-15.09-3.143c2.568-.052 2.778.576.63 1.886l-.63-1.886zm58.785.314c-1.886-1.886-1.572-3.143.943-3.772 2.358 1.834 2.044 3.091-.943 3.772zm-112.225-8.487c-2.357-3.196-1.833-5.187 1.572-5.973 2.096 2.83 1.572 4.82-1.572 5.973zm88.02-.629c-1.834-1.205-1.939-2.672-.315-4.4l-.314-2.2c-.419-.263-.838-.682-1.257-1.258-1.467 1.519-2.62 1.519-3.458 0 2.462-3.51 5.92-4.244 10.373-2.2l1.572-.944.943 1.572c-2.462 1.676-3.405 4.191-2.829 7.544-1.205 1.048-2.777 1.677-4.715 1.886zm-110.653 0c1.048-.366 2.095-1.1 3.143-2.2.21-2.043-.628-3.72-2.515-5.03-2.881 1.939-3.09 4.349-.628 7.23zm55.012-10.687c1.52-.053 2.986-.577 4.4-1.572.63-3.353-.733-5.03-4.086-5.03-2.148 2.044-2.253 4.244-.314 6.602zm69.787-6.602c-1.31-1.31-2.044-3.09-2.2-5.343 2.043-.472 3.405.366 4.086 2.514.681 1.834.052 2.777-1.886 2.83zm-51.869-.314c1.205-.157 2.148-.89 2.83-2.2.052-1.939-.682-3.615-2.201-5.03-1.834 1.939-2.043 4.349-.629 7.23zm88.02-5.658c-.63-1.362-.315-2.2.943-2.515.68 1.258.366 2.096-.943 2.515zm-89.592-2.2h.315-.315.63-.315.628-.314.314c2.149-2.83 1.73-5.344-1.257-7.545-4.087-.524-6.182.629-6.287 3.458 1.834.681 3.405 1.834 4.715 3.458l1.886.628zm-25.462-.315c1.938-.052 3.196-1.1 3.772-3.143-.943-2.777-2.725-3.406-5.344-1.886.21 1.467.733 3.143 1.572 5.03zm-5.03-2.829h1.257c3.092-4.558 2.253-6.025-2.514-4.4.104 1.309.523 2.776 1.257 4.4zm35.208-.943c-.577-1.205-.681-2.358-.315-3.458 2.044.786 2.148 1.939.315 3.458zm3.458-5.973h2.2c1.258-4.138-.105-5.815-4.087-5.029.105 1.572.734 3.248 1.887 5.03zm-71.988-3.772l1.258 1.258 2.2-.315c-.838-3.615-1.99-3.929-3.458-.943zm9.43.315c-.47-1.572-.051-2.62 1.258-3.144.943 1.73.524 2.777-1.257 3.144zm29.55-3.144c1.363.105 2.41-.524 3.144-1.886 0-2.829-1.258-3.667-3.772-2.515-.105 1.258.104 2.725.628 4.401zm56.27-1.257a4.023 4.023 0 0 1-.943-1.886c2.2.262 2.515.89.943 1.886zm-93.05-1.257c2.568-.42 4.035-1.991 4.402-4.716-1.886-2.514-3.982-2.41-6.287.315 0 1.624.628 3.09 1.886 4.4zm19.49-1.887c2.358-1.1 3.302-2.986 2.83-5.658-1.52-2.829-3.196-2.724-5.03.315-.052 1.886.681 3.667 2.2 5.343zm43.696-2.514c2.096.105 2.096.628 0 1.571v-1.571zm64.757 1.257c2.463-.524 5.292-.524 8.488 0-.681-1.048-1.205-2.41-1.572-4.086-.524-.839-.838-1.782-.943-2.83l-.314-.628c-.89-1.939-2.253-2.358-4.087-1.258-.367 1.625-.367 3.406 0 5.344-1.52.891-2.043 2.044-1.572 3.458zm-11.316-1.572c3.51-.733 5.92-2.305 7.23-4.715-.053-1.362-.472-2.724-1.258-4.086-1.886 1.938-4.4 2.567-7.544 1.886l-1.258.629c-.157 2.514.786 4.61 2.83 6.286zm-51.24-2.2c2.672.21 5.291-.629 7.859-2.515-.105-2.253-.734-4.767-1.887-7.544 1.205-.262 1.939-1.1 2.2-2.515-1.204-1.048-2.147-2.41-2.828-4.086-.943-.262-2.2-.262-3.773 0l-.943 1.257c2.306 3.982.734 6.706-4.715 8.173.576 2.41 1.939 4.82 4.087 7.23zm9.745-3.458l.314 1.258c.995-.367 2.253-.577 3.772-.63.262-1.309.053-2.671-.628-4.086-.21 1.73-1.363 2.882-3.458 3.458zM23.89 66.508c2.2-.786 4.191-2.253 5.973-4.4l.943-.315.629-.314.943-.315c0-.733-.105-1.467-.315-2.2-1.572-2.305-5.344-1.677-11.317 1.886-.419 2.41.63 4.296 3.144 5.658zm146.49-.943l4.4-.314c3.092-3.825 1.206-4.977-5.658-3.458-.262 1.31.157 2.567 1.258 3.772zm-32.379-.629c-.576-3.038-.157-3.353 1.257-.943l-1.257.943zm-87.39-1.571h-.63.63zm0 0c1.571-1.467 1.99-3.248 1.257-5.344-2.672-1.257-4.14-.314-4.401 2.829l2.514 2.515h.63zm40.865-.943l1.572.943c4.034.733 6.34-.734 6.916-4.401.42-3.144-2.62-4.925-9.116-5.344.262 1.781.366 3.877.314 6.287.21.629.314 1.467.314 2.515zM75.76 56.135c2.462-.315 2.567.314.314 1.886l-.314-1.886zm52.497-5.344c1.31.314 1.31.629 0 .943v-.943zm-34.58.314c7.126 0 8.07-2.41 2.83-7.23-2.358-1.519-3.825-.995-4.4 1.572-1.154 2.305-.63 4.191 1.57 5.658zm29.865 0c-.786-1.1-1.205-2.252-1.258-3.457 3.982-.367 4.401.785 1.258 3.457zm-43.696-1.571l1.258.943c1.781-.053 3.667-.577 5.658-1.572v-1.886c-1.31-.89-2.672-2.148-4.087-3.772l-.943-.315-.628-.943c.366 1.834-.053 4.349-1.258 7.545zm49.04-2.515c2.462-.943 3.51-2.83 3.143-5.658-1.467-3.144-3.772-3.144-6.916 0 .367 1.833 1.625 3.72 3.773 5.658zm-26.092-1.572c3.772-2.095 4.61-5.972 2.515-11.63-.943-3.458-2.83-3.773-5.658-.944-2.253-1.257-4.349-.943-6.287.943 1.1.158 2.462.472 4.086.943l-.314 5.659.314.943 4.087 3.143.628.629c.21-.053.42.052.63.314zm-15.089-2.2c.89-2.515 2.463-4.191 4.715-5.03-.052 3.144-1.624 4.82-4.715 5.03zm-76.703-2.515c1.939-.105 3.196-1.153 3.773-3.143-1.52-5.24-4.035-5.763-7.545-1.572.105 2.2 1.362 3.772 3.772 4.715zm112.854-5.973c1.153-.419 2.096-1.362 2.83-2.829-.106-1.99-1.049-3.562-2.83-4.715-3.353 2.253-3.353 4.768 0 7.544zm-74.502-4.4c3.196-2.253 3.196-4.663 0-7.23l-1.886 2.515c0 1.624.628 3.195 1.886 4.715zm37.094-8.488c1.938-.157 3.51-1.1 4.715-2.829-2.2-2.2-4.82-2.41-7.859-.628.42 1.467 1.467 2.62 3.144 3.457zm37.408-11.316l4.715 2.83c2.096-.315 3.249-1.573 3.458-3.773-2.305-2.043-5.03-2.148-8.173-.314v1.257zM347.42 217h2.2c3.197-.629 5.476-2.75 6.838-6.365.419-3.406-.943-6.104-4.087-8.095-.262-1.048-.864-2.253-1.807-3.615l.864-4.086c5.71-5.763 6.313-15.246 1.808-28.448 1.624-10.321-2.882-16.215-13.518-17.682-3.51-4.349-8.487-6.156-14.932-5.423-1.362 3.615-3.929 6.497-7.701 8.645l-1.808 7.623-.864.471v1.336c-.681.105-1.284.42-1.808.943-.471 2.41-1.545 4.82-3.222 7.23l.943 9.038v9.98l-.471 2.672c1.31 1.781 3.274 2.54 5.894 2.279.89 2.095 1.336 4.348 1.336 6.758 5.553 6.182 12.94 9.797 22.162 10.845 1.52 2.986 4.244 4.951 8.173 5.894zM279.126 28.237V28v.236zm0 0v.236c-6.549-1.467-12.574-4.637-18.075-9.51 2.358-.261 4.61-1.466 6.759-3.614.628-1.782.943-3.877.943-6.287-1.624-.89-3.301-2.253-5.03-4.087l-.864-.471-.944-.865c-1.047-.523-2.095-1.44-3.143-2.75-6.235-2.62-11.37.55-15.404 9.509-3.09-1.677-5.946-4.244-8.566-7.702-2.62-.785-5.632-.785-9.037 0-.682 2.2-.97 4.925-.865 8.173a12.415 12.415 0 0 1 1.808 4.48c5.449 2.253 8.147 6.627 8.094 13.124.996 1.833 2.515 3.798 4.558 5.894 0 2.043-.314 4.296-.943 6.758v3.143c.682.734 1.127 1.65 1.336 2.75 4.349-.156 6.47 3.616 6.366 11.317 3.825 1.52 6.392 4.218 7.702 8.095-2.096 1.886-5.108 3.09-9.038 3.615-2.096-1.52-4.06-3.615-5.894-6.287l-1.336-.472-.943-.943c-.524-.105-.97-.393-1.336-.864l-.943-1.336c-1.153-.629-2.358-1.546-3.615-2.75-1.048-.368-2.096-1.127-3.144-2.28l-1.807-1.336c-1.31-1.205-2.358-2.698-3.144-4.48-1.467-.575-3.117-.733-4.951-.47v1.335c2.043 1.415 3.982 3.38 5.816 5.894l.943.472.471.864 2.672 2.28.943.864.865 1.807c1.257.734 2.62 1.939 4.086 3.615l3.615 3.694c-9.902 2.776-19.097.497-27.584-6.837l-2.28.943c.944.786 1.1 1.676.472 2.672-3.405-1.048-4.165-.446-2.279 1.807l2.75 2.279c5.135 1.415 9.955 4.27 14.461 8.566l-.943 2.279c-3.93 5.553-8.592 5.999-13.989 1.336-2.148-.105-4.113-.996-5.894-2.672l-1.336.864c3.772 3.51 8.75 6.078 14.932 7.702 2.305 6.81 1.257 8.775-3.144 5.894-5.92-1.467-9.692-5.396-11.316-11.788l-1.808-.865c-5.658-4.4-11.553-3.955-17.682 1.336-.786 4.14.13 8.2 2.75 12.181 4.244 1.781 9.221 2.253 14.932 1.415 1.624.68 3.563.969 5.816.864l.943-3.615 8.566 4.087c-2.148.995-3.484 2.645-4.008 4.95l.393 2.28c1.467 1.466 3.431 3.117 5.894 4.95l.943.943.864.472.943 1.336v5.422c-.995.839-2.357 1.73-4.086 2.672-.157 2.83-1.074 5.71-2.75 8.645v3.143c-1.573-.262-2.935-1.021-4.087-2.279-1.677-.314-3.327-1.074-4.951-2.279l-2.672-.864-.944-.472-.471 1.808 8.645 4.086.393.865.943.471 1.336.472h1.807c-.105 2.934.498 6.391 1.808 10.373 2.567 1.048 4.846 2.724 6.837 5.03 5.24.995 6.732 6.103 4.48 15.324 2.514 4.767 1.467 8.54-3.144 11.316-.943 2.62-2.908 4.27-5.894 4.951-1.258 1.415-2.908 2.777-4.951 4.086l-.472.943-.864.393-2.75 1.808-.944 1.414-1.336.865c-2.986-.262-6.287.052-9.902.943l-3.222.393-2.672 1.807c-.629 1.73-1.834 3.248-3.615 4.558-2.83 5.554-1.625 10.216 3.615 13.989h5.894c1.99-3.196 4.846-5.763 8.566-7.702l.472-.864c6.182.052 12.495 1.86 18.94 5.422l8.173.472h2.672c2.829-1.886 6.313-3.249 10.452-4.087 1.415-4.872 4.584-8.644 9.51-11.316h7.23v3.615c4.767 1.886 9.875 2.2 15.324.943.629-1.73 1.834-3.248 3.615-4.558-.68-9.011-3.536-14.277-8.566-15.796l-.943-1.807c.42-1.939.288-4.06-.393-6.366 1.782-.419 3.877-.576 6.287-.471.681 1.519.996 3.195.943 5.03 1.467 0 3.118-.315 4.951-.944h3.616l.471-.864h1.336c-.157-1.73.603-2.803 2.28-3.222.576-1.625 1.623-3.275 3.143-4.951-.157-4.296-2.41-7.309-6.759-9.038v-1.807c-1.938-.157-3.143-1.362-3.615-3.615-.681 0-1.284-.288-1.808-.865-2.095-.21-4.505.079-7.23.865h-4.558c-.105.314-.393.629-.864.943.471-2.41 1.362-5.291 2.672-8.645l.471-1.335v-1.808c.053-.314.34-.629.865-.943v-1.336c.262-1.362.864-2.724 1.807-4.086l.472-1.336c2.986-.158 6.313.288 9.98 1.336h1.808l2.28-3.615h4.007c1.624-1.362 3.59-1.65 5.894-.865 1.153-1.99 2.07-4.558 2.751-7.701 1.886-.838 4.139-1.44 6.759-1.808l3.615 8.566h4.95c1.101-1.729 1.86-3.981 2.28-6.758 1.834-.576 3.798-1.624 5.894-3.144.21-7.492-2.96-9.456-9.51-5.894-6.391 2.83-7.439 1.336-3.143-4.479l2.2-1.807c2.096 1.152 4.506 1.755 7.23 1.807 3.983-6.549 9.72-8.068 17.212-4.558.052 2.672-.236 5.999-.865 9.98v2.2l1.336 1.808c4.14 3.51 9.117 3.982 14.932 1.415l2.672 1.807c-1.257 8.278-.812 15.953 1.336 23.026 10.112 3.039 19.621.183 28.528-8.566v-2.279c3.72-4.086 3.72-8.618 0-13.595v-2.672l1.808-1.336c.471-2.358 1.519-4.768 3.143-7.23 7.335.472 11.265-3.17 11.788-10.923-4.191-3.615-9.325-4.663-15.403-3.144l-1.808-1.807c-.419-1.624-1.31-3.589-2.672-5.894V61.95c-1.152-2.2-2.96-4.48-5.422-6.837l-.472-.864c-.314-.105-.628-.42-.943-.943-.262-.053-.55-.34-.864-.865l-.943-.471-.393-.865c-.472-1.31-1.231-2.514-2.28-3.615l-.47-.943-1.337-1.336h-4.086c-1.467-1.729-3.72-2.331-6.76-1.807l-2.75-1.808-.471-2.75c-2.777-3.405-4.427-7.911-4.951-13.517-.63-1.205-1.074-2.567-1.336-4.086l-.472-1.336v-1.415c-1.415-2.357-2.777-5.5-4.087-9.43-.21-.472-.34-1.074-.392-1.808l-1.808-1.414c-.367 1.414-.367 2.934 0 4.558l4.48 11.316v1.336l.471.865 1.336 3.615v1.414l.943 2.672.865 1.808v2.279l.943 1.807c-1.991.42-3.956 1.467-5.894 3.143-3.196-3.3-5.606-7.675-7.23-13.123-1.677-2.515-3.04-5.816-4.087-9.902l-1.336-.943-.943 3.222.471 2.672.943 3.143c1.31 1.677 2.358 3.956 3.144 6.837l.471 1.336c.63 1.362 1.074 2.882 1.336 4.558l.865 1.807.471 1.336.472 1.808c-4.401-.996-8.619-3.248-12.653-6.758h-1.336c-1.362-1.625-2.724-3.746-4.087-6.366l-2.75-2.279c-1.31-1.31-2.672-3.274-4.087-5.894l-1.336-.864-.864-1.336-1.415-1.415c-.629-1.205-1.676-2.54-3.143-4.008l-.865-1.414-.471-1.808-1.336-1.807c-.42-.367-1.022-.655-1.808-.865l.393 2.672 4.558 6.837.865.865c.68 1.467 1.886 3.117 3.615 4.95l.943 1.808 5.894 5.894 2.2 4.087-4.008-.865c-1.257-2.2-3.222-4.48-5.894-6.837l-.471-.864-.472-1.415-.864-.864-.472-1.336c-1.1-.734-2.148-1.808-3.143-3.222-1.258-.629-2.62-1.834-4.087-3.615-.943-1.258-1.834-2.75-2.672-4.48l-1.808-.471c-.21 1.414.079 2.934.865 4.558 4.506 4.505 8.12 10.53 10.845 18.075-2.986-2.306-5.842-5.632-8.566-9.98-1.31-.996-2.358-2.358-3.144-4.087h-2.279c-.995-.891-2.043-2.096-3.143-3.615l-4.558-3.144-.472-1.336-4.086-3.615-.865-1.336-.943-1.414h-1.808l.943 3.222c2.358 1.52 4.611 3.772 6.76 6.758l1.414.865.393.943c.314.052.628.34.943.864 1.257.629 2.62 1.703 4.086 3.222l.865 1.336 1.336.865.471 3.615c12.941 18.127 9.17 18.284-11.316.471-.63 1.677-.158 3.353 1.414 5.03-3.982-1.31-7.151-4.034-9.51-8.173h-1.807l.393 1.336.472.943.471 1.336v-.236zm-37.958 139.961c.105-1.886.707-3.693 1.808-5.422-.21-1.834-.079-3.956.392-6.366h2.751c1.991 1.153 4.401 1.755 7.23 1.808h1.336c1.048-.943 2.41-1.546 4.087-1.808-.786 1.1-1.834 1.86-3.144 2.28-.943 1.571-2.462 2.933-4.558 4.086-1.938 3.353-5.239 5.16-9.902 5.422zm118.905-59.725c-4.14-2.515-6.104-6.418-5.894-11.71 10.321-5.29 13.622-1.676 9.902 10.846-1.1.576-2.436.864-4.008.864zm59.649-20.354h17.604c2.724-1.676 4.243-4.374 4.558-8.094 1.414-1.048 2.331-2.567 2.75-4.558 8.226-2.515 9.562-6.575 4.008-12.18-2.41.104-5.265-.21-8.566-.944l-1.807 2.28-1.808 2.75h-3.143l-.943 1.807-3.144.865c-2.096.523-4.663.838-7.702.943l-1.336.471-1.336.393-5.422.472h-2.75l-1.337.471v3.615c4.296.786 6.55 3.798 6.759 9.037 1.257.472 2.462 1.362 3.615 2.672zM224.429 75.94c-.734-.891-1.65-1.65-2.751-2.28-.734-.838-.734-1.283 0-1.335 2.462.471 3.38 1.676 2.75 3.614zm60.592-15.403c-3.668-.996-3.982-4.742-.943-11.238-1.572-1.467-2.777-3.432-3.616-5.894 3.825 1.1 7.44 3.353 10.846 6.758 1.362.053 2.881.498 4.558 1.336.838.472 1.729 1.389 2.672 2.75-3.3 3.563-7.807 5.659-13.517 6.288zm13.988-9.038c-1.31-1.1-3.117-2.148-5.422-3.143l-.865-.472-3.222-1.807c-.995-.576-2.043-1.467-3.143-2.672-.315.052-.63-.105-.943-.472l-1.808-.471-1.336-.865-1.808-.943-1.807-.393-6.759-7.23c-.786-1.676-.786-3.352 0-5.029 10.112 3.144 18.39 9.77 24.834 19.882l3.222 2.28c-.157.628-.471 1.073-.943 1.335zm2.28-4.008l-1.337.393c-1.362-1.048-2.567-2.54-3.615-4.48-1.362-.785-2.567-1.99-3.615-3.614-.314-.105-.628-.42-.943-.943l-.864-.865-.472-1.335c4.61 2.148 8.226 5.762 10.845 10.844zm7.23-8.644l-3.144-6.758c2.62 1.676 3.668 3.929 3.144 6.758zm5.894-4.008a16.502 16.502 0 0 1-1.415-4.558c4.349 2.986 4.82 4.506 1.415 4.558zm-52.89-11.316h-6.366c-1.153-.786-1.31-1.703-.472-2.75 2.777-.944 5.056-.027 6.838 2.75z"/>
</svg>
